<svg width="24" height="24" viewBox="0 0 24 24" fill="none" xmlns="http://www.w3.org/2000/svg">
<g clip-path="url(#clip0_7364_341)">
<path d="M19.302 12.73L21.083 10.249C21.434 9.75101 21.504 9.12001 21.269 8.56001C21.036 8.00401 20.54 7.61201 19.945 7.51501L16.954 7.03401L16.773 5.94301L16.793 5.92301L16.748 5.79601L16.454 4.02601C16.356 3.42701 15.962 2.93201 15.4 2.69901C15.117 2.58101 14.817 2.54201 14.525 2.57601C14.183 2.58501 13.847 2.68301 13.557 2.89101L11.18 4.61101L8.77899 2.88601C8.48899 2.68101 8.15299 2.58501 7.81299 2.57601C7.51899 2.54201 7.21799 2.58101 6.93499 2.70001C6.37799 2.93301 5.98699 3.42901 5.88899 4.02401L5.40799 7.01501L2.39999 7.51401C1.80099 7.61301 1.30599 8.00701 1.07299 8.56801C0.83899 9.13001 0.911991 9.76101 1.26599 10.255L3.04199 12.709L1.26099 15.19C0.909991 15.688 0.839991 16.32 1.07399 16.879C1.30799 17.436 1.80299 17.826 2.39799 17.924L5.38899 18.405L5.88899 21.413C5.98599 22.01 6.37799 22.505 6.93399 22.739C7.21699 22.858 7.51899 22.897 7.81199 22.863C8.15299 22.854 8.48999 22.756 8.78399 22.549L11.156 20.846L11.175 20.839L13.557 22.549C13.86 22.765 14.212 22.876 14.57 22.876C14.797 22.876 15.024 22.832 15.243 22.741C15.804 22.508 16.199 22.012 16.297 21.415L16.778 18.424L17.869 18.243L18.045 18.419L19.008 18.08L19.942 17.924C20.541 17.826 21.037 17.432 21.27 16.87C21.504 16.307 21.431 15.678 21.077 15.184L19.302 12.73Z" fill="#144F82"/>
<path d="M15.189 24.001C14.835 24.001 14.486 23.891 14.187 23.677L11.384 21.665C11.311 21.614 11.19 21.617 11.103 21.674L8.31302 23.677C7.81302 24.028 7.18802 24.097 6.63602 23.865C6.08602 23.635 5.69902 23.144 5.60202 22.554L5.03602 19.147C5.02002 19.053 4.94602 18.979 4.85102 18.963L1.44302 18.397C0.854019 18.3 0.364019 17.914 0.133019 17.363C-0.0989808 16.809 -0.0299808 16.185 0.318019 15.692L2.33302 12.883C2.38302 12.81 2.38302 12.689 2.32402 12.602L0.324019 9.81297C-0.0269808 9.32497 -0.0969808 8.70097 0.133019 8.14497C0.363019 7.58897 0.854019 7.19997 1.44602 7.10297L4.85302 6.53697C4.94702 6.52097 5.02102 6.44697 5.03702 6.35297L5.60302 2.94497C5.70002 2.35497 6.08602 1.86497 6.63702 1.63497C7.19002 1.40297 7.81502 1.47197 8.30802 1.81997L11.116 3.83597C11.196 3.89397 11.305 3.89397 11.385 3.83497L14.186 1.82397C14.675 1.47497 15.298 1.40197 15.854 1.63397C16.41 1.86397 16.799 2.35497 16.897 2.94597L17.087 4.09097C17.155 4.49897 16.879 4.88597 16.47 4.95397C16.063 5.01797 15.675 4.74597 15.607 4.33697L15.417 3.19097C15.4 3.08297 15.324 3.03597 15.28 3.01897C15.236 3.00197 15.15 2.97897 15.061 3.04197L12.259 5.05397C11.655 5.48597 10.846 5.48497 10.243 5.05497L7.43802 3.04197C7.34902 2.97897 7.26002 2.99797 7.21702 3.01897C7.16502 3.03997 7.10002 3.08697 7.08302 3.18897L6.51602 6.59897C6.39502 7.32597 5.82602 7.89597 5.09902 8.01697L1.69002 8.58297C1.58302 8.60097 1.53702 8.67597 1.51902 8.71997C1.50002 8.76397 1.47902 8.85097 1.54202 8.93897L3.51402 11.682C3.97102 12.349 3.97102 13.15 3.56302 13.744L1.54202 16.56C1.47902 16.65 1.50002 16.738 1.51802 16.782C1.54002 16.834 1.58702 16.899 1.68902 16.916L5.09902 17.482C5.82602 17.603 6.39502 18.173 6.51602 18.9L7.08202 22.308C7.09902 22.412 7.16502 22.458 7.21602 22.48C7.25902 22.498 7.34702 22.519 7.44302 22.453L10.24 20.445C10.849 20.028 11.649 20.028 12.244 20.436L15.06 22.457C15.148 22.52 15.234 22.498 15.279 22.48C15.322 22.462 15.399 22.416 15.416 22.309L15.983 18.9C16.104 18.173 16.673 17.603 17.4 17.482L20.809 16.916C20.912 16.899 20.959 16.834 20.981 16.782C20.999 16.738 21.021 16.65 20.954 16.554L18.946 13.757C18.705 13.42 18.781 12.951 19.118 12.71C19.455 12.471 19.924 12.545 20.165 12.882L22.177 15.685C22.528 16.184 22.597 16.808 22.365 17.362C22.134 17.913 21.644 18.3 21.054 18.396L17.647 18.962C17.553 18.978 17.479 19.052 17.463 19.146L16.897 22.554C16.8 23.145 16.41 23.635 15.855 23.866C15.639 23.957 15.413 24.001 15.189 24.001Z" fill="white"/>
<path d="M12.25 15.5C12.058 15.5 11.866 15.427 11.72 15.28L7.21999 10.78C6.92699 10.487 6.92699 10.012 7.21999 9.71899C7.51299 9.42599 7.98799 9.42599 8.28099 9.71899L12.251 13.689L22.72 3.21999C23.013 2.92699 23.488 2.92699 23.781 3.21999C24.074 3.51299 24.074 3.98799 23.781 4.28099L12.781 15.281C12.634 15.427 12.442 15.5 12.25 15.5Z" fill="white"/>
</g>
<defs>
<clipPath id="clip0_7364_341">
<rect width="24" height="24" fill="white"/>
</clipPath>
</defs>
</svg>
