<svg width="25" height="24" viewBox="0 0 25 24" fill="none" xmlns="http://www.w3.org/2000/svg">
<path d="M13.096 1.54528L15.9102 7.74978C16.0454 8.04785 16.3275 8.25279 16.6528 8.28929L23.4233 9.04846C24.2166 9.1374 24.5357 10.1195 23.9462 10.6578L18.915 15.2515C18.6732 15.4722 18.5655 15.8038 18.6313 16.1244L20.0015 22.7981C20.162 23.5801 19.3267 24.1871 18.6326 23.7927L12.7089 20.4273C12.4243 20.2656 12.0757 20.2656 11.7911 20.4273L5.86745 23.7927C5.17333 24.1871 4.33791 23.5801 4.49849 22.7981L5.86867 16.1244C5.93447 15.8038 5.82676 15.4722 5.58504 15.2515L0.553773 10.6578C-0.035783 10.1195 0.283313 9.1374 1.07668 9.04846L7.84717 8.28929C8.17242 8.25284 8.4545 8.0479 8.58973 7.74978L11.4039 1.54528C11.7337 0.818239 12.7663 0.818239 13.096 1.54528Z" fill="#FFDD00"/>
<path d="M12.7089 20.4274L18.6326 23.7928C19.3267 24.1871 20.1621 23.5802 20.0016 22.7982L18.6314 16.1245C18.5655 15.8039 18.6733 15.4723 18.915 15.2516L23.9462 10.6578C24.5358 10.1195 24.2167 9.13746 23.4233 9.04852L16.6528 8.2894C16.3276 8.2529 16.0455 8.04796 15.9103 7.74989L13.096 1.54529C12.9312 1.18175 12.5905 1 12.2499 1V20.3061C12.4083 20.3061 12.5666 20.3465 12.7089 20.4274Z" fill="#FFB900"/>
<path d="M12.6343 8.12687L13.9126 10.9453C13.9741 11.0807 14.1022 11.1738 14.2499 11.1903L17.3254 11.5351C17.6858 11.5755 17.8307 12.0216 17.563 12.2662L15.2775 14.3529C15.1677 14.4531 15.1188 14.6038 15.1487 14.7494L15.7711 17.7809C15.844 18.1362 15.4645 18.4119 15.1492 18.2327L12.4584 16.704C12.3291 16.6306 12.1707 16.6306 12.0414 16.704L9.35061 18.2327C9.03533 18.4118 8.65584 18.1362 8.72874 17.7809L9.35113 14.7494C9.38105 14.6038 9.33208 14.4531 9.2223 14.3529L6.93689 12.2662C6.66906 12.0216 6.81403 11.5755 7.17442 11.5351L10.2499 11.1903C10.3976 11.1738 10.5258 11.0807 10.5872 10.9453L11.8656 8.12687C12.0154 7.79658 12.4845 7.79658 12.6343 8.12687Z" fill="#FFEE8C"/>
<path d="M12.4585 16.704L15.1493 18.2327C15.4646 18.4118 15.8441 18.1361 15.7712 17.7809L15.1488 14.7494C15.1189 14.6038 15.1678 14.4531 15.2776 14.3529L17.563 12.2662C17.8308 12.0217 17.6859 11.5755 17.3255 11.5351L14.25 11.1903C14.1023 11.1737 13.9741 11.0806 13.9127 10.9452L12.6343 8.12685C12.5595 7.9617 12.4047 7.87915 12.25 7.87915V16.6489C12.3219 16.6489 12.3938 16.6672 12.4585 16.704Z" fill="#FFDD00"/>
<path d="M15.6215 19.1458C15.5017 19.1458 15.3815 19.1153 15.273 19.0537L12.2501 17.3362L9.22717 19.0537C8.98644 19.1905 8.68795 19.1738 8.46391 19.011C8.23988 18.8483 8.13179 18.5695 8.18748 18.2983L8.88672 14.8926L6.31919 12.5484C6.11472 12.3617 6.03833 12.0726 6.12394 11.8093C6.20945 11.546 6.44115 11.357 6.71636 11.3262L10.1714 10.9388L11.6076 7.77251C11.7219 7.52039 11.9732 7.3584 12.2501 7.3584C12.527 7.3584 12.7782 7.52035 12.8926 7.77251L14.3287 10.9388L17.7837 11.3262C18.0589 11.357 18.2906 11.546 18.3762 11.8093C18.4617 12.0726 18.3853 12.3617 18.1809 12.5484L15.6134 14.8926L16.3126 18.2983C16.3683 18.5696 16.2602 18.8483 16.0362 19.011C15.9132 19.1004 15.7676 19.1458 15.6215 19.1458ZM12.2501 15.8192C12.3704 15.8192 12.4906 15.8499 12.5987 15.9113L14.6176 17.0583L14.1506 14.7837C14.1006 14.5402 14.1824 14.2884 14.366 14.1208L16.0807 12.5551L13.7731 12.2964C13.5261 12.2687 13.3119 12.1131 13.2092 11.8867L12.2501 9.77199L11.2909 11.8867C11.1882 12.113 10.974 12.2687 10.727 12.2964L8.41946 12.5551L10.1342 14.1208C10.3178 14.2884 10.3996 14.5402 10.3496 14.7837L9.88258 17.0583L11.9015 15.9113C12.0097 15.8499 12.1299 15.8192 12.2501 15.8192Z" fill="#FFF7D2"/>
<path d="M15.2729 19.0537C15.3814 19.1154 15.5015 19.1458 15.6214 19.1458C15.7675 19.1458 15.9131 19.1005 16.0361 19.0111C16.2601 18.8483 16.3682 18.5696 16.3125 18.2984L15.6133 14.8927L18.1808 12.5484C18.3853 12.3617 18.4617 12.0727 18.3761 11.8093C18.2905 11.546 18.0589 11.3571 17.7837 11.3262L14.3286 10.9388L12.8925 7.77251C12.7782 7.52039 12.5269 7.3584 12.25 7.3584V9.77203V9.77199L13.2092 11.8867C13.3119 12.113 13.5261 12.2687 13.773 12.2964L16.0807 12.5551L14.3659 14.1208C14.1824 14.2884 14.1005 14.5402 14.1505 14.7837L14.6175 17.0583L12.5986 15.9113C12.4905 15.8499 12.3703 15.8192 12.25 15.8192V17.3362L15.2729 19.0537Z" fill="#FFEE8C"/>
</svg>
