<svg width="44" height="44" viewBox="0 0 44 44" fill="none" xmlns="http://www.w3.org/2000/svg">
<rect width="44" height="44" rx="6" fill="#2B526F"/>
<path d="M33.512 27.0462L22.6753 16.2481C22.598 16.1713 22.4965 16.1087 22.3791 16.0656C22.2617 16.0225 22.1318 16 22 16C21.8682 16 21.7383 16.0225 21.621 16.0656C21.5036 16.1087 21.4021 16.1713 21.3248 16.2481L10.4881 27.0462C10.3966 27.1363 10.3419 27.243 10.3302 27.3543C10.3184 27.4656 10.35 27.577 10.4214 27.6761C10.4918 27.7739 10.5983 27.8558 10.7291 27.913C10.86 27.9701 11.0102 28.0002 11.1633 28H32.8368C32.9899 28.0002 33.1401 27.9701 33.2709 27.913C33.4018 27.8558 33.5083 27.7739 33.5787 27.6761C33.6501 27.577 33.6817 27.4656 33.6699 27.3543C33.6581 27.243 33.6034 27.1363 33.512 27.0462Z" fill="white"/>
</svg>
